<mxfile host="app.diagrams.net" agent="Mozilla/5.0 (Windows NT 10.0; Win64; x64) AppleWebKit/537.36 (KHTML, like Gecko) Chrome/131.0.0.0 Safari/537.36" version="24.8.6">
  <diagram name="Page-1" id="P9o04M7we_RFPe03_wxI">
    <mxGraphModel dx="1772" dy="603" grid="1" gridSize="10" guides="1" tooltips="1" connect="1" arrows="1" fold="1" page="1" pageScale="1" pageWidth="850" pageHeight="1100" math="0" shadow="0">
      <root>
        <mxCell id="0" />
        <mxCell id="1" parent="0" />
        <mxCell id="gQRz_tQ71kEGDiQ-KNYA-46" value="" style="rounded=0;whiteSpace=wrap;html=1;" vertex="1" parent="1">
          <mxGeometry x="40" y="30" width="730" height="630" as="geometry" />
        </mxCell>
        <mxCell id="gQRz_tQ71kEGDiQ-KNYA-1" value="Librarian" style="shape=umlActor;verticalLabelPosition=bottom;verticalAlign=top;html=1;outlineConnect=0;" vertex="1" parent="1">
          <mxGeometry x="90" y="149" width="30" height="60" as="geometry" />
        </mxCell>
        <mxCell id="gQRz_tQ71kEGDiQ-KNYA-2" value="Member" style="shape=umlActor;verticalLabelPosition=bottom;verticalAlign=top;html=1;outlineConnect=0;" vertex="1" parent="1">
          <mxGeometry x="380" y="154" width="30" height="60" as="geometry" />
        </mxCell>
        <mxCell id="gQRz_tQ71kEGDiQ-KNYA-3" value="Visitor" style="shape=umlActor;verticalLabelPosition=bottom;verticalAlign=top;html=1;outlineConnect=0;" vertex="1" parent="1">
          <mxGeometry x="375" y="480" width="30" height="60" as="geometry" />
        </mxCell>
        <mxCell id="gQRz_tQ71kEGDiQ-KNYA-5" value="&lt;p data-pm-slice=&quot;0 0 []&quot;&gt;Update Book Information&lt;/p&gt;" style="ellipse;whiteSpace=wrap;html=1;" vertex="1" parent="1">
          <mxGeometry x="200" y="134" width="80" height="60" as="geometry" />
        </mxCell>
        <mxCell id="gQRz_tQ71kEGDiQ-KNYA-7" value="&lt;p data-pm-slice=&quot;0 0 []&quot;&gt;Add New Books&lt;/p&gt;" style="ellipse;whiteSpace=wrap;html=1;" vertex="1" parent="1">
          <mxGeometry x="170" y="64" width="80" height="60" as="geometry" />
        </mxCell>
        <mxCell id="gQRz_tQ71kEGDiQ-KNYA-8" value="&lt;p data-pm-slice=&quot;0 0 []&quot;&gt;Generate Reports&lt;/p&gt;" style="ellipse;whiteSpace=wrap;html=1;" vertex="1" parent="1">
          <mxGeometry x="200" y="204" width="80" height="60" as="geometry" />
        </mxCell>
        <mxCell id="gQRz_tQ71kEGDiQ-KNYA-9" value="&lt;p data-pm-slice=&quot;0 0 []&quot;&gt;Manage Inventory&lt;/p&gt;" style="ellipse;whiteSpace=wrap;html=1;" vertex="1" parent="1">
          <mxGeometry x="140" y="274" width="80" height="60" as="geometry" />
        </mxCell>
        <mxCell id="gQRz_tQ71kEGDiQ-KNYA-10" value="&lt;p data-pm-slice=&quot;0 0 []&quot;&gt;Borrow Books&lt;/p&gt;" style="ellipse;whiteSpace=wrap;html=1;" vertex="1" parent="1">
          <mxGeometry x="470" y="64" width="80" height="60" as="geometry" />
        </mxCell>
        <mxCell id="gQRz_tQ71kEGDiQ-KNYA-11" value="&lt;p data-pm-slice=&quot;0 0 []&quot;&gt;Return Books&lt;/p&gt;" style="ellipse;whiteSpace=wrap;html=1;" vertex="1" parent="1">
          <mxGeometry x="480" y="144" width="80" height="60" as="geometry" />
        </mxCell>
        <mxCell id="gQRz_tQ71kEGDiQ-KNYA-12" value="&lt;p data-pm-slice=&quot;0 0 []&quot;&gt;Reserve Books&lt;/p&gt;" style="ellipse;whiteSpace=wrap;html=1;" vertex="1" parent="1">
          <mxGeometry x="470" y="223" width="80" height="60" as="geometry" />
        </mxCell>
        <mxCell id="gQRz_tQ71kEGDiQ-KNYA-13" value="&lt;p data-pm-slice=&quot;0 0 []&quot;&gt;Check Loan History&lt;/p&gt;" style="ellipse;whiteSpace=wrap;html=1;" vertex="1" parent="1">
          <mxGeometry x="420" y="294" width="80" height="60" as="geometry" />
        </mxCell>
        <mxCell id="gQRz_tQ71kEGDiQ-KNYA-14" value="&lt;p data-pm-slice=&quot;0 0 []&quot;&gt;Search for Books&lt;/p&gt;" style="ellipse;whiteSpace=wrap;html=1;" vertex="1" parent="1">
          <mxGeometry x="480" y="480" width="80" height="60" as="geometry" />
        </mxCell>
        <mxCell id="gQRz_tQ71kEGDiQ-KNYA-17" value="&lt;p data-pm-slice=&quot;0 0 []&quot;&gt;View Book Details&lt;/p&gt;" style="ellipse;whiteSpace=wrap;html=1;" vertex="1" parent="1">
          <mxGeometry x="425" y="570" width="80" height="60" as="geometry" />
        </mxCell>
        <mxCell id="gQRz_tQ71kEGDiQ-KNYA-18" value="&lt;p data-pm-slice=&quot;0 0 []&quot;&gt;Register as a Member&lt;/p&gt;" style="ellipse;whiteSpace=wrap;html=1;" vertex="1" parent="1">
          <mxGeometry x="270" y="570" width="80" height="60" as="geometry" />
        </mxCell>
        <mxCell id="gQRz_tQ71kEGDiQ-KNYA-19" value="&lt;p data-pm-slice=&quot;0 0 []&quot;&gt;Browse Library Catalog&lt;/p&gt;" style="ellipse;whiteSpace=wrap;html=1;" vertex="1" parent="1">
          <mxGeometry x="240" y="480" width="80" height="60" as="geometry" />
        </mxCell>
        <mxCell id="gQRz_tQ71kEGDiQ-KNYA-24" value="" style="endArrow=classic;html=1;rounded=0;entryX=0;entryY=1;entryDx=0;entryDy=0;" edge="1" parent="1" target="gQRz_tQ71kEGDiQ-KNYA-7">
          <mxGeometry width="50" height="50" relative="1" as="geometry">
            <mxPoint x="110" y="149" as="sourcePoint" />
            <mxPoint x="160" y="99" as="targetPoint" />
          </mxGeometry>
        </mxCell>
        <mxCell id="gQRz_tQ71kEGDiQ-KNYA-25" value="" style="endArrow=classic;html=1;rounded=0;entryX=0;entryY=0.5;entryDx=0;entryDy=0;" edge="1" parent="1" target="gQRz_tQ71kEGDiQ-KNYA-5">
          <mxGeometry width="50" height="50" relative="1" as="geometry">
            <mxPoint x="120" y="169" as="sourcePoint" />
            <mxPoint x="192" y="135" as="targetPoint" />
          </mxGeometry>
        </mxCell>
        <mxCell id="gQRz_tQ71kEGDiQ-KNYA-26" value="" style="endArrow=classic;html=1;rounded=0;entryX=0;entryY=0;entryDx=0;entryDy=0;" edge="1" parent="1" target="gQRz_tQ71kEGDiQ-KNYA-8">
          <mxGeometry width="50" height="50" relative="1" as="geometry">
            <mxPoint x="110" y="194" as="sourcePoint" />
            <mxPoint x="182" y="160" as="targetPoint" />
          </mxGeometry>
        </mxCell>
        <mxCell id="gQRz_tQ71kEGDiQ-KNYA-27" value="" style="endArrow=classic;html=1;rounded=0;entryX=0.5;entryY=0;entryDx=0;entryDy=0;" edge="1" parent="1" target="gQRz_tQ71kEGDiQ-KNYA-9">
          <mxGeometry width="50" height="50" relative="1" as="geometry">
            <mxPoint x="120" y="209" as="sourcePoint" />
            <mxPoint x="180" y="269" as="targetPoint" />
          </mxGeometry>
        </mxCell>
        <mxCell id="gQRz_tQ71kEGDiQ-KNYA-28" value="" style="endArrow=classic;html=1;rounded=0;entryX=0.004;entryY=0.715;entryDx=0;entryDy=0;entryPerimeter=0;" edge="1" parent="1" target="gQRz_tQ71kEGDiQ-KNYA-10">
          <mxGeometry width="50" height="50" relative="1" as="geometry">
            <mxPoint x="400" y="158" as="sourcePoint" />
            <mxPoint x="472" y="124" as="targetPoint" />
          </mxGeometry>
        </mxCell>
        <mxCell id="gQRz_tQ71kEGDiQ-KNYA-29" value="" style="endArrow=classic;html=1;rounded=0;entryX=0;entryY=0.5;entryDx=0;entryDy=0;exitX=0.75;exitY=0.1;exitDx=0;exitDy=0;exitPerimeter=0;" edge="1" parent="1" source="gQRz_tQ71kEGDiQ-KNYA-2" target="gQRz_tQ71kEGDiQ-KNYA-11">
          <mxGeometry width="50" height="50" relative="1" as="geometry">
            <mxPoint x="410" y="174" as="sourcePoint" />
            <mxPoint x="470" y="128" as="targetPoint" />
          </mxGeometry>
        </mxCell>
        <mxCell id="gQRz_tQ71kEGDiQ-KNYA-30" value="" style="endArrow=classic;html=1;rounded=0;" edge="1" parent="1" source="gQRz_tQ71kEGDiQ-KNYA-2">
          <mxGeometry width="50" height="50" relative="1" as="geometry">
            <mxPoint x="400" y="197" as="sourcePoint" />
            <mxPoint x="477.38401412867495" y="238.63304648409974" as="targetPoint" />
            <Array as="points">
              <mxPoint x="395" y="194" />
            </Array>
          </mxGeometry>
        </mxCell>
        <mxCell id="gQRz_tQ71kEGDiQ-KNYA-31" value="" style="endArrow=classic;html=1;rounded=0;entryX=0.5;entryY=0;entryDx=0;entryDy=0;" edge="1" parent="1">
          <mxGeometry width="50" height="50" relative="1" as="geometry">
            <mxPoint x="409" y="214" as="sourcePoint" />
            <mxPoint x="464" y="293.9999999999999" as="targetPoint" />
          </mxGeometry>
        </mxCell>
        <mxCell id="gQRz_tQ71kEGDiQ-KNYA-32" value="" style="endArrow=classic;html=1;rounded=0;entryX=1;entryY=0;entryDx=0;entryDy=0;" edge="1" parent="1" target="gQRz_tQ71kEGDiQ-KNYA-19">
          <mxGeometry width="50" height="50" relative="1" as="geometry">
            <mxPoint x="390" y="521" as="sourcePoint" />
            <mxPoint x="460" y="470" as="targetPoint" />
          </mxGeometry>
        </mxCell>
        <mxCell id="gQRz_tQ71kEGDiQ-KNYA-34" value="" style="endArrow=classic;html=1;rounded=0;entryX=-0.003;entryY=0.26;entryDx=0;entryDy=0;entryPerimeter=0;" edge="1" parent="1" target="gQRz_tQ71kEGDiQ-KNYA-14">
          <mxGeometry width="50" height="50" relative="1" as="geometry">
            <mxPoint x="390" y="516" as="sourcePoint" />
            <mxPoint x="447" y="598" as="targetPoint" />
          </mxGeometry>
        </mxCell>
        <mxCell id="gQRz_tQ71kEGDiQ-KNYA-36" value="" style="endArrow=classic;html=1;rounded=0;exitX=0;exitY=1;exitDx=0;exitDy=0;exitPerimeter=0;" edge="1" parent="1" source="gQRz_tQ71kEGDiQ-KNYA-3" target="gQRz_tQ71kEGDiQ-KNYA-18">
          <mxGeometry width="50" height="50" relative="1" as="geometry">
            <mxPoint x="410" y="600" as="sourcePoint" />
            <mxPoint x="492" y="609" as="targetPoint" />
          </mxGeometry>
        </mxCell>
        <mxCell id="gQRz_tQ71kEGDiQ-KNYA-39" value="" style="endArrow=none;dashed=1;html=1;rounded=0;entryX=0.5;entryY=1;entryDx=0;entryDy=0;startArrow=classic;startFill=1;" edge="1" parent="1" source="gQRz_tQ71kEGDiQ-KNYA-14" target="gQRz_tQ71kEGDiQ-KNYA-12">
          <mxGeometry width="50" height="50" relative="1" as="geometry">
            <mxPoint x="540" y="270" as="sourcePoint" />
            <mxPoint x="580" y="250" as="targetPoint" />
          </mxGeometry>
        </mxCell>
        <mxCell id="gQRz_tQ71kEGDiQ-KNYA-40" value="&lt;span style=&quot;color: rgb(236, 236, 236); font-family: ui-monospace, SFMono-Regular, &amp;quot;SF Mono&amp;quot;, Menlo, Consolas, &amp;quot;Liberation Mono&amp;quot;, monospace; font-size: 12.25px; text-align: left; text-wrap-mode: wrap; background-color: rgb(66, 66, 66);&quot;&gt;&amp;lt;&amp;lt;include&amp;gt;&amp;gt;&lt;/span&gt;" style="edgeLabel;html=1;align=center;verticalAlign=middle;resizable=0;points=[];" vertex="1" connectable="0" parent="gQRz_tQ71kEGDiQ-KNYA-39">
          <mxGeometry x="-0.2155" y="1" relative="1" as="geometry">
            <mxPoint as="offset" />
          </mxGeometry>
        </mxCell>
        <mxCell id="gQRz_tQ71kEGDiQ-KNYA-41" value="" style="endArrow=classic;html=1;rounded=0;exitX=0;exitY=1;exitDx=0;exitDy=0;exitPerimeter=0;entryX=0.311;entryY=0.024;entryDx=0;entryDy=0;entryPerimeter=0;" edge="1" parent="1" target="gQRz_tQ71kEGDiQ-KNYA-17">
          <mxGeometry width="50" height="50" relative="1" as="geometry">
            <mxPoint x="405" y="540" as="sourcePoint" />
            <mxPoint x="343" y="606" as="targetPoint" />
          </mxGeometry>
        </mxCell>
        <mxCell id="gQRz_tQ71kEGDiQ-KNYA-42" value="" style="endArrow=none;dashed=1;html=1;rounded=0;entryX=0.5;entryY=1;entryDx=0;entryDy=0;exitX=1;exitY=0;exitDx=0;exitDy=0;startArrow=classic;startFill=1;" edge="1" parent="1" source="gQRz_tQ71kEGDiQ-KNYA-17" target="gQRz_tQ71kEGDiQ-KNYA-14">
          <mxGeometry width="50" height="50" relative="1" as="geometry">
            <mxPoint x="530" y="721" as="sourcePoint" />
            <mxPoint x="538" y="560" as="targetPoint" />
          </mxGeometry>
        </mxCell>
        <mxCell id="gQRz_tQ71kEGDiQ-KNYA-45" value="&lt;span style=&quot;color: rgb(236, 236, 236); font-family: ui-monospace, SFMono-Regular, &amp;quot;SF Mono&amp;quot;, Menlo, Consolas, &amp;quot;Liberation Mono&amp;quot;, monospace; font-size: 12.25px; text-align: left; text-wrap-mode: wrap; background-color: rgb(66, 66, 66);&quot;&gt;&amp;lt;&amp;lt;include&amp;gt;&amp;gt;&lt;/span&gt;" style="edgeLabel;html=1;align=center;verticalAlign=middle;resizable=0;points=[];" vertex="1" connectable="0" parent="gQRz_tQ71kEGDiQ-KNYA-42">
          <mxGeometry x="0.0935" y="2" relative="1" as="geometry">
            <mxPoint x="1" as="offset" />
          </mxGeometry>
        </mxCell>
        <mxCell id="gQRz_tQ71kEGDiQ-KNYA-50" value="&lt;b&gt;&lt;font style=&quot;font-size: 18px;&quot;&gt;Library Management System&lt;/font&gt;&lt;/b&gt;" style="text;html=1;align=center;verticalAlign=middle;whiteSpace=wrap;rounded=0;" vertex="1" parent="1">
          <mxGeometry x="90" y="380" width="260" height="30" as="geometry" />
        </mxCell>
      </root>
    </mxGraphModel>
  </diagram>
</mxfile>
